<svg width="17" height="16" viewBox="0 0 17 16" fill="none" xmlns="http://www.w3.org/2000/svg">
<path d="M4.80769 6.46154C4.80769 6.27897 4.86183 6.1005 4.96326 5.9487C5.06469 5.7969 5.20886 5.67859 5.37753 5.60873C5.5462 5.53886 5.7318 5.52058 5.91085 5.5562C6.08991 5.59181 6.25439 5.67973 6.38349 5.80882C6.51258 5.93792 6.60049 6.10239 6.63611 6.28145C6.67173 6.46051 6.65345 6.64611 6.58358 6.81478C6.51372 6.98345 6.3954 7.12762 6.24361 7.22905C6.09181 7.33048 5.91334 7.38461 5.73077 7.38461C5.48596 7.38461 5.25117 7.28736 5.07806 7.11425C4.90495 6.94114 4.80769 6.70635 4.80769 6.46154ZM11.2692 7.38461C11.4518 7.38461 11.6303 7.33048 11.7821 7.22905C11.9339 7.12762 12.0522 6.98345 12.122 6.81478C12.1919 6.64611 12.2102 6.46051 12.1746 6.28145C12.139 6.10239 12.051 5.93792 11.9219 5.80882C11.7929 5.67973 11.6284 5.59181 11.4493 5.5562C11.2703 5.52058 11.0847 5.53886 10.916 5.60873C10.7473 5.67859 10.6032 5.7969 10.5017 5.9487C10.4003 6.1005 10.3462 6.27897 10.3462 6.46154C10.3462 6.70635 10.4434 6.94114 10.6165 7.11425C10.7896 7.28736 11.0244 7.38461 11.2692 7.38461ZM16.5 8C16.5 9.58225 16.0308 11.129 15.1518 12.4446C14.2727 13.7602 13.0233 14.7855 11.5615 15.391C10.0997 15.9965 8.49113 16.155 6.93928 15.8463C5.38743 15.5376 3.96197 14.7757 2.84315 13.6569C1.72433 12.538 0.962403 11.1126 0.653721 9.56072C0.34504 8.00887 0.503466 6.40034 1.10897 4.93853C1.71447 3.47672 2.73985 2.22729 4.05544 1.34824C5.37103 0.469192 6.91775 0 8.5 0C10.621 0.00240243 12.6544 0.846028 14.1542 2.3458C15.654 3.84557 16.4976 5.879 16.5 8ZM15.2692 8C15.2692 6.66117 14.8722 5.35241 14.1284 4.23922C13.3846 3.12602 12.3274 2.25839 11.0905 1.74605C9.85356 1.2337 8.49249 1.09965 7.17939 1.36084C5.86629 1.62203 4.66013 2.26674 3.71343 3.21343C2.76674 4.16012 2.12203 5.36629 1.86084 6.67939C1.59965 7.99249 1.7337 9.35356 2.24605 10.5905C2.7584 11.8274 3.62603 12.8846 4.73922 13.6284C5.85241 14.3722 7.16117 14.7692 8.5 14.7692C10.2947 14.7672 12.0153 14.0534 13.2843 12.7843C14.5534 11.5153 15.2672 9.79468 15.2692 8ZM12.0065 9.31315C11.8652 9.23145 11.6972 9.20922 11.5396 9.25134C11.3819 9.29346 11.2474 9.39649 11.1657 9.53777C10.8299 10.1179 10.3146 10.5732 9.69746 10.8351C9.13345 11.0736 8.51103 11.1383 7.91003 11.0208C7.30902 10.9032 6.75682 10.6089 6.32423 10.1754C6.1339 9.98507 5.96922 9.77072 5.83439 9.53777C5.75266 9.39649 5.61816 9.29346 5.46047 9.25135C5.30278 9.20924 5.13482 9.2315 4.99354 9.31323C4.85226 9.39496 4.74924 9.52946 4.70713 9.68715C4.66502 9.84484 4.68727 10.0128 4.769 10.1541C5.14747 10.8086 5.69145 11.352 6.34634 11.7298C7.00123 12.1076 7.74397 12.3065 8.50002 12.3065C9.25607 12.3065 9.99882 12.1076 10.6537 11.7298C11.3086 11.3519 11.8525 10.8085 12.231 10.154C12.3127 10.0127 12.335 9.84479 12.2928 9.68711C12.2507 9.52944 12.1477 9.39495 12.0065 9.31323V9.31315Z" fill="#66CB9F"/>
</svg>
